<svg xmlns="http://www.w3.org/2000/svg" xmlns:xlink="http://www.w3.org/1999/xlink" width="1366" zoomAndPan="magnify" viewBox="0 0 1024.5 576" height="768" preserveAspectRatio="xMidYMid meet" version="1.2"><defs><clipPath id="195432358f"><path d="M 0 382 L 1024 382 L 1024 575.859375 L 0 575.859375 Z M 0 382 "/></clipPath><clipPath id="19f5869e9f"><path d="M 0 465 L 1024 465 L 1024 575.859375 L 0 575.859375 Z M 0 465 "/></clipPath><clipPath id="0156a66080"><path d="M 523 146 L 536 146 L 536 179.339844 L 523 179.339844 Z M 523 146 "/></clipPath><clipPath id="b6b672ebcb"><path d="M 0 3.21875 L 1024 3.21875 L 1024 171.542969 L 0 171.542969 Z M 0 3.21875 "/></clipPath><clipPath id="cbe7c2f92c"><path d="M 0 3.21875 L 1024 3.21875 L 1024 108.613281 L 0 108.613281 Z M 0 3.21875 "/></clipPath></defs><g id="666e28a234"><g clip-rule="nonzero" clip-path="url(#195432358f)"><path style=" stroke:none;fill-rule:nonzero;fill:#4ec9f5;fill-opacity:1;" d="M 931.460938 423.3125 C 916.472656 433.300781 903.898438 447.085938 887.484375 454.5 C 833.335938 478.953125 788.363281 394.386719 746.234375 415.304688 C 733.300781 421.726562 724.511719 434.015625 715.371094 445.199219 C 706.226562 456.382812 695.144531 467.488281 680.882812 469.773438 C 655.472656 473.847656 633.984375 448.722656 608.320312 446.8125 C 574.273438 444.28125 546.960938 482.664062 512.996094 479.195312 C 480.804688 475.910156 465.511719 439.195312 443.5 415.460938 C 368.476562 334.570312 283.128906 421.859375 215.746094 456.097656 C 184.082031 472.1875 145.652344 474.289062 112.386719 461.898438 C 111.25 461.476562 110.121094 461.035156 109 460.582031 C 57.554688 439.660156 22.28125 437.566406 0.886719 466.945312 L 0.886719 841.234375 L 1023.117188 841.234375 L 1023.117188 408.953125 C 991.289062 402.144531 954.914062 407.679688 931.460938 423.3125 Z M 931.460938 423.3125 "/><path style=" stroke:none;fill-rule:nonzero;fill:#b1e3fa;fill-opacity:1;" d="M 931.460938 423.3125 C 916.472656 433.300781 903.898438 447.085938 887.484375 454.5 C 833.335938 478.953125 788.363281 394.386719 746.234375 415.304688 C 733.300781 421.726562 724.511719 434.015625 715.371094 445.199219 C 706.226562 456.382812 695.144531 467.488281 680.882812 469.773438 C 655.472656 473.847656 633.984375 448.722656 608.320312 446.8125 C 574.273438 444.28125 546.960938 482.664062 512.996094 479.195312 C 480.804688 475.910156 465.511719 439.195312 443.5 415.460938 C 368.476562 334.570312 283.128906 421.859375 215.746094 456.097656 C 184.082031 472.1875 145.652344 474.289062 112.386719 461.898438 C 111.25 461.476562 110.121094 461.035156 109 460.582031 C 57.554688 439.660156 22.28125 437.566406 0.886719 466.945312 L 0.886719 522.109375 C 19.59375 507.378906 54.984375 495.90625 67.289062 511.359375 C 75.179688 521.261719 72.359375 550.3125 89.042969 549.496094 C 95.953125 549.167969 101.859375 544.667969 107.523438 540.65625 C 113.167969 536.648438 119.75 532.78125 126.578125 533.90625 C 134.183594 535.152344 139.457031 542.210938 142.546875 549.289062 C 181.71875 639.0625 242.867188 530.632812 278.851562 502.910156 C 341.472656 454.691406 359.523438 548.492188 413.375 538.40625 C 444.820312 532.515625 454.632812 497.058594 490.289062 512.996094 C 513.144531 523.226562 544.058594 550.027344 570.859375 539.65625 C 588.832031 532.679688 607.597656 511.484375 629.105469 519.09375 C 646.605469 525.292969 650.144531 550.414062 663.78125 561.871094 C 669.585938 566.71875 677.601562 569.585938 684.820312 567.335938 C 702.746094 561.75 701.625 532.535156 718.390625 524.066406 C 726.503906 519.972656 737.117188 521.875 744.25 516.230469 C 752.714844 509.539062 751.46875 496.609375 754.921875 486.378906 C 759.910156 471.628906 776.777344 462.855469 791.867188 465.574219 C 810.738281 468.992188 819.589844 488.796875 829.261719 503.300781 C 858.003906 544.5625 897.667969 512.464844 925.1875 492.292969 C 946.652344 476.539062 975.152344 470.792969 1001.054688 476.949219 C 1009.132812 478.875 1016.464844 481.605469 1023.117188 485.011719 L 1023.117188 408.953125 C 991.289062 402.144531 954.914062 407.679688 931.460938 423.3125 Z M 931.460938 423.3125 "/></g><g clip-rule="nonzero" clip-path="url(#19f5869e9f)"><path style=" stroke:none;fill-rule:nonzero;fill:#4ec9f5;fill-opacity:1;" d="M 925.1875 492.292969 C 897.667969 512.464844 858.003906 544.5625 829.261719 503.300781 C 819.589844 488.796875 810.738281 468.992188 791.867188 465.574219 C 776.777344 462.855469 759.910156 471.628906 754.921875 486.378906 C 751.46875 496.609375 752.714844 509.539062 744.25 516.230469 C 737.117188 521.875 726.503906 519.972656 718.390625 524.066406 C 701.625 532.535156 702.746094 561.75 684.820312 567.335938 C 677.601562 569.585938 669.585938 566.71875 663.78125 561.871094 C 650.144531 550.414062 646.605469 525.292969 629.105469 519.09375 C 607.597656 511.484375 588.832031 532.679688 570.859375 539.65625 C 544.058594 550.027344 513.144531 523.226562 490.289062 512.996094 C 454.632812 497.058594 444.820312 532.515625 413.375 538.40625 C 359.523438 548.492188 341.472656 454.691406 278.851562 502.910156 C 242.867188 530.632812 181.71875 639.0625 142.546875 549.289062 C 139.457031 542.210938 134.183594 535.152344 126.578125 533.90625 C 119.75 532.78125 113.167969 536.648438 107.523438 540.65625 C 101.859375 544.667969 95.953125 549.167969 89.042969 549.496094 C 72.359375 550.3125 75.179688 521.261719 67.289062 511.359375 C 54.984375 495.90625 19.59375 507.378906 0.886719 522.109375 L 0.886719 578.414062 C 9.496094 597.25 21.34375 614.589844 36.027344 629.199219 C 96.402344 689.308594 198.953125 695.933594 272.265625 652.605469 C 297.496094 637.710938 320.085938 617.582031 347.851562 608.210938 C 400.25 590.492188 456.839844 614.859375 505.722656 640.78125 C 554.585938 666.722656 607.167969 695.730469 661.839844 687.34375 C 726.546875 677.398438 775.941406 617.128906 841.117188 611.035156 C 881.433594 607.269531 920.707031 625.148438 961.167969 627.09375 C 980.484375 628.023438 1002.296875 624.097656 1023.117188 616.179688 L 1023.117188 485.011719 C 1016.464844 481.605469 1009.132812 478.875 1001.054688 476.949219 C 975.152344 470.792969 946.652344 476.539062 925.1875 492.292969 Z M 925.1875 492.292969 "/></g><path style=" stroke:none;fill-rule:nonzero;fill:#eb1501;fill-opacity:1;" d="M 647.890625 155.417969 C 647.890625 155.417969 658.75 145.796875 658.996094 138.886719 C 659.242188 131.980469 649.617188 115.695312 649.617188 115.695312 C 649.617188 115.695312 643.695312 121.617188 644.929688 129.019531 C 646.164062 136.421875 654.304688 146.042969 647.890625 155.417969 "/><path style=" stroke:none;fill-rule:nonzero;fill:#eb1501;fill-opacity:1;" d="M 692.0625 144.316406 C 692.0625 144.316406 687.867188 131.980469 693.789062 124.332031 C 699.710938 116.683594 705.386719 114.710938 707.113281 107.058594 C 707.113281 107.058594 711.804688 114.710938 707.113281 121.863281 C 702.425781 129.019531 693.789062 131.734375 692.0625 144.316406 "/><path style=" stroke:none;fill-rule:nonzero;fill:#eb1501;fill-opacity:1;" d="M 775.304688 124.613281 C 775.304688 124.613281 765.796875 110.585938 772.558594 99.714844 C 778.140625 90.746094 792.371094 85.070312 791.167969 72.203125 C 791.167969 72.203125 798.917969 80.835938 790.816406 91.003906 C 782.714844 101.175781 775.378906 100.972656 775.304688 124.613281 "/><path style=" stroke:none;fill-rule:nonzero;fill:#eb1501;fill-opacity:1;" d="M 393.15625 163.222656 C 393.15625 163.222656 383.320312 150.25 384.898438 136.859375 C 386.984375 119.101562 406.128906 117.820312 404.664062 93.34375 C 404.664062 93.34375 415.125 102.128906 411.570312 116.566406 C 408.011719 131.003906 387.773438 132.152344 393.15625 163.222656 "/><path style=" stroke:none;fill-rule:nonzero;fill:#eb1501;fill-opacity:1;" d="M 429.566406 130.375 C 429.566406 130.375 432.492188 115.101562 428.519531 107.78125 C 424.542969 100.457031 419.3125 96.0625 423.289062 83.929688 C 423.289062 83.929688 426.007812 91.878906 432.914062 98.574219 C 439.820312 105.269531 436.46875 120.75 429.566406 130.375 "/><path style=" stroke:none;fill-rule:nonzero;fill:#eb1501;fill-opacity:1;" d="M 341.574219 122.320312 C 341.574219 122.320312 325.042969 90.832031 350.257812 79.953125 C 354.933594 77.9375 361.140625 84.765625 354.863281 96.0625 C 348.585938 107.359375 347.542969 111.023438 347.542969 111.023438 C 347.542969 111.023438 346.652344 104.832031 347.542969 98.363281 C 348.148438 93.949219 350.335938 89.789062 348.375 89.789062 C 341.574219 89.789062 341.574219 122.320312 341.574219 122.320312 "/><path style=" stroke:none;fill-rule:nonzero;fill:#eb1501;fill-opacity:1;" d="M 461.78125 112.015625 C 461.78125 112.015625 455.519531 104.535156 460.867188 94.929688 C 466.210938 85.316406 481.960938 89.609375 483.476562 73.929688 C 483.476562 73.929688 488.6875 83.519531 479.855469 89.710938 C 471.03125 95.902344 461.296875 98.535156 461.78125 112.015625 "/><path style=" stroke:none;fill-rule:nonzero;fill:#eb1501;fill-opacity:1;" d="M 551.527344 175.347656 C 551.527344 175.347656 542.015625 163.855469 544.730469 148.636719 C 547.441406 133.417969 571.382812 132.570312 571.945312 109.335938 C 571.945312 109.335938 578.15625 124.203125 567.863281 135.328125 C 557.578125 146.453125 550.523438 155.933594 551.527344 175.347656 "/><g clip-rule="nonzero" clip-path="url(#0156a66080)"><path style=" stroke:none;fill-rule:nonzero;fill:#eb1501;fill-opacity:1;" d="M 524.03125 179.242188 C 524.03125 179.242188 527.953125 171.90625 531.996094 168.589844 C 536.035156 165.273438 538.003906 154.730469 532.234375 146.375 C 532.234375 146.375 532.492188 153.960938 527.589844 158.320312 C 522.683594 162.675781 524.03125 179.242188 524.03125 179.242188 "/></g><path style=" stroke:none;fill-rule:nonzero;fill:#eb1501;fill-opacity:1;" d="M 504.222656 168.480469 C 504.222656 168.480469 498.65625 158.832031 506.089844 153.472656 C 513.523438 148.113281 524.296875 149.09375 522.9375 137.871094 C 522.015625 130.257812 518.230469 124.578125 518.230469 124.578125 C 518.230469 124.578125 531.558594 131.105469 530.992188 141.007812 C 530.191406 154.96875 511.308594 154.585938 504.222656 168.480469 "/><g clip-rule="nonzero" clip-path="url(#b6b672ebcb)"><path style=" stroke:none;fill-rule:nonzero;fill:#eb1501;fill-opacity:1;" d="M 4.855469 57.71875 C 8.945312 55.855469 13.652344 52.375 15.761719 43.941406 C 20.054688 26.777344 26.128906 33.949219 29.828125 48.382812 C 33.527344 62.816406 45.746094 69.847656 56.476562 72.066406 C 56.476562 72.066406 38.039062 44.886719 57.652344 40.957031 C 62.09375 39.105469 77.207031 39.871094 63.511719 60.222656 C 63.511719 60.222656 73.230469 62.058594 79.496094 47.609375 C 85.578125 37.515625 100.15625 35.058594 94.605469 43.570312 C 89.050781 52.082031 88.78125 59.96875 93.863281 79.46875 C 100.546875 105.105469 81.652344 110.183594 81.652344 110.183594 C 81.652344 110.183594 111.203125 119.707031 126.75 73.929688 C 133.78125 53.222656 140.054688 35.160156 149.945312 26.421875 C 161.917969 15.847656 177.449219 18 183.554688 33.566406 C 183.988281 36.734375 184.277344 39.511719 184.207031 41.613281 C 183.753906 55.535156 164.714844 62.15625 164.714844 62.15625 C 183.015625 67.933594 200.894531 56.210938 202.097656 39.289062 C 203.304688 22.363281 211.800781 13.96875 235.496094 17.535156 C 252.933594 23.707031 242.507812 45.816406 232.179688 49.652344 C 225.902344 51.976562 202.820312 53.1875 195.390625 71.222656 C 187.957031 89.257812 200.710938 102.042969 200.710938 102.042969 C 205.925781 75.5 230.914062 76.375 257.632812 76.183594 C 284.34375 75.996094 280.976562 45.75 284.132812 47.070312 C 303.273438 58.984375 288.351562 75.210938 278.433594 84.859375 C 268.515625 94.503906 279.101562 106.648438 279.101562 106.648438 C 279.101562 106.648438 278.558594 97.265625 303.375 87.484375 C 328.195312 77.707031 323.308594 56.636719 320.1875 46.945312 C 315.71875 33.105469 288.289062 15.835938 312.207031 15.804688 C 336.125 15.773438 327.53125 55.128906 327.53125 55.128906 C 332.800781 50.480469 336.3125 45.671875 338.449219 40.839844 C 339.636719 38.171875 340.371094 35.523438 340.765625 32.890625 C 343.550781 24.605469 348.6875 13 355.359375 14.304688 C 365.617188 16.308594 357.601562 42.472656 360.253906 54.347656 C 361.152344 64.886719 367.132812 75.324219 367 81.835938 C 366.789062 91.878906 346.074219 105.683594 357.371094 141.878906 C 357.371094 141.878906 361.976562 117.402344 376.625 106.941406 C 391.277344 96.484375 401.316406 91.878906 398.386719 70.539062 C 395.460938 49.199219 392.945312 30.789062 422.242188 32.042969 C 451.539062 33.300781 418.054688 52.515625 413.453125 61.332031 C 408.433594 70.957031 412.617188 79.535156 412.617188 79.535156 C 412.617188 79.535156 419.101562 65.726562 433.542969 62.589844 C 441.675781 60.820312 455.785156 58.140625 465.152344 50.28125 C 471.484375 46.777344 486.613281 29.242188 486.855469 49.742188 C 487.410156 57.984375 490.195312 65.445312 494.277344 70.335938 C 494.277344 70.335938 498.03125 31.230469 520.242188 42.847656 C 527.367188 46.578125 526.921875 68.773438 507.472656 76.335938 C 488.027344 83.894531 482.746094 92.898438 479.890625 109.660156 C 477.03125 126.429688 484.261719 152.617188 450.414062 155.953125 C 450.414062 155.953125 481.070312 171.839844 495.855469 145.210938 C 503.847656 130.816406 494.847656 118.195312 511.195312 105.796875 C 525.179688 95.191406 537.09375 102.152344 550.285156 84.058594 C 555.847656 76.425781 563.628906 68.265625 567.070312 71.285156 C 574.757812 78.027344 553.242188 112 536.28125 115.554688 C 536.28125 115.554688 556.933594 121.636719 576.695312 96.777344 C 577.863281 95.304688 578.945312 93.753906 579.949219 92.140625 C 580 92.070312 580.03125 92.015625 580.0625 91.96875 C 580.125 91.863281 580.1875 91.757812 580.25 91.65625 C 591.265625 73.492188 599.746094 44.175781 614.355469 71.070312 C 622.835938 88.046875 610.765625 91.492188 606.433594 103.113281 C 602.484375 111.75 603.964844 125.070312 612.601562 140.863281 C 621.242188 156.652344 614.328125 167.507812 611.371094 171.457031 C 611.371094 171.457031 631.605469 161.832031 634.320312 147.769531 C 637.03125 133.707031 631.996094 127.832031 633.578125 118.199219 C 636.539062 100.152344 664.425781 84.609375 671.828125 98.671875 C 679.96875 114.136719 663.683594 127.292969 663.683594 127.292969 C 663.683594 127.292969 681.679688 122.132812 695.023438 108.789062 C 703.660156 100.152344 703.664062 87.597656 701.816406 82.140625 C 696.125 65.367188 721.886719 55.800781 723.929688 69.105469 C 727.046875 89.445312 746.878906 86.621094 746.878906 86.621094 C 746.878906 86.621094 728.617188 74.039062 749.441406 58.945312 C 750.695312 58.035156 751.957031 57.253906 753.222656 56.53125 C 753.3125 56.476562 753.359375 56.453125 753.410156 56.421875 C 754.699219 55.691406 756 55.023438 757.308594 54.359375 C 774.113281 47.6875 771.863281 81.410156 767.039062 88.644531 C 767.039062 88.644531 792.304688 57.910156 794.523438 40.515625 C 795.753906 30.875 804.980469 38.546875 803.992188 50.386719 C 803.257812 59.207031 799.527344 68.65625 804.148438 77.894531 C 814.511719 98.617188 822.285156 96.027344 819.324219 119.34375 C 819.324219 119.34375 828.207031 110.089844 828.949219 96.398438 C 829.6875 82.703125 815.125 77.570312 827.929688 66.917969 C 832.679688 62.964844 843.382812 71.230469 836.722656 96.765625 C 836.722656 96.765625 846.4375 95.210938 850.136719 70.042969 C 853.839844 44.878906 865.59375 49.152344 862.632812 59.636719 C 859.671875 70.121094 864.484375 87.515625 881.878906 91.214844 C 881.878906 91.214844 871.484375 74.875 876.296875 67.164062 C 881.105469 59.453125 885.953125 49.09375 884.101562 33.886719 C 882.25 18.679688 888.371094 22.363281 891.601562 37.894531 C 893.34375 46.261719 898.054688 54.152344 908.160156 59.636719 C 908.160156 59.636719 901.867188 46.558594 902.609375 37.554688 C 902.859375 34.484375 904.914062 29.40625 907.226562 23.199219 C 917.394531 0.898438 931.828125 48.125 931.949219 54.566406 C 932.238281 70.378906 925.796875 78.128906 925.796875 78.128906 C 925.796875 78.128906 945.566406 68.96875 947.351562 48.304688 C 950.042969 17.15625 957.8125 7.390625 961.859375 23.546875 C 965.132812 36.609375 968.464844 36.792969 972.90625 39.519531 C 972.90625 39.519531 968.105469 28.765625 976.125 19.144531 C 985.730469 7.625 994.757812 7.671875 1004.308594 36.488281 C 1005.886719 41.253906 1010.132812 49.453125 1017.4375 50.695312 C 1013.859375 45.09375 1012.011719 35.070312 1016.324219 25.429688 C 1016.324219 25.429688 1019.789062 20.15625 1024 22.972656 L 1024 3.246094 L 908.710938 3.21875 C 908.710938 3.230469 770.675781 3.242188 770.675781 3.242188 C 770.632812 3.21875 626.296875 3.21875 626.296875 3.21875 C 626.234375 3.246094 449.871094 3.246094 449.871094 3.246094 C 449.808594 3.238281 449.738281 3.226562 449.671875 3.21875 L 414.847656 3.21875 C 414.792969 3.230469 414.742188 3.234375 414.6875 3.246094 L 332.023438 3.246094 C 332.003906 3.21875 180.558594 3.21875 180.558594 3.21875 C 180.550781 3.289062 180.546875 3.355469 180.539062 3.425781 L 133.96875 3.21875 L -0.0078125 3.246094 L -0.0078125 22.972656 C 3.683594 25.441406 6.464844 32.972656 6.828125 40.742188 C 7.148438 47.617188 5.578125 54.675781 1.074219 58.566406 C 1.074219 58.566406 2.480469 58.796875 4.855469 57.71875 "/></g><path style=" stroke:none;fill-rule:nonzero;fill:#eb1501;fill-opacity:1;" d="M 226.988281 120.179688 C 226.988281 120.179688 232.253906 111.910156 231.503906 104.820312 C 230.765625 97.730469 230.667969 90.042969 242.578125 88.050781 C 254.492188 86.058594 259.160156 87.824219 264.933594 83.4375 C 264.933594 83.4375 268.515625 94.503906 254.292969 98.761719 C 240.0625 103.015625 250.726562 121.273438 226.988281 120.179688 "/><path style=" stroke:none;fill-rule:nonzero;fill:#eb1501;fill-opacity:1;" d="M 204.914062 127.035156 C 204.914062 127.035156 212.097656 127.480469 214.574219 119.078125 C 217.175781 110.222656 209.488281 106.6875 221.558594 99.339844 C 221.558594 99.339844 210.765625 97.539062 208.050781 106.753906 C 205.34375 115.96875 211.679688 115.675781 204.914062 127.035156 "/><path style=" stroke:none;fill-rule:nonzero;fill:#eb1501;fill-opacity:1;" d="M 950.234375 90.621094 C 950.234375 90.621094 958.78125 82.488281 955.734375 76.507812 C 952.691406 70.523438 952.089844 66.179688 956.992188 62.214844 C 956.992188 62.214844 964.5625 68.171875 963.707031 73.53125 C 962.851562 78.890625 959.570312 85.363281 950.234375 90.621094 "/><path style=" stroke:none;fill-rule:nonzero;fill:#eb1501;fill-opacity:1;" d="M 983.90625 85.929688 C 983.90625 85.929688 973.308594 77.480469 979.195312 65.15625 C 985.085938 52.832031 992.890625 41.183594 983.699219 23.207031 C 983.699219 23.207031 998.5 26.601562 995.777344 44.683594 C 993.058594 62.765625 980.015625 66.96875 983.90625 85.929688 "/><path style=" stroke:none;fill-rule:nonzero;fill:#fa6700;fill-opacity:1;" d="M 652.453125 144.316406 C 652.453125 144.316406 655.382812 137.515625 655.507812 132.75 C 655.632812 127.988281 649.617188 115.695312 649.617188 115.695312 C 649.617188 115.695312 646.558594 122.195312 647.460938 127.292969 C 648.355469 132.386719 653.9375 135.558594 652.453125 144.316406 "/><path style=" stroke:none;fill-rule:nonzero;fill:#fa6700;fill-opacity:1;" d="M 390.15625 144.742188 C 390.15625 144.742188 387.394531 138.640625 389.738281 130.375 C 392.84375 119.410156 404.035156 117.480469 405.691406 101.933594 C 405.691406 101.933594 411.101562 108.503906 407.453125 117.230469 C 403.808594 125.957031 390.132812 124.664062 390.15625 144.742188 "/><path style=" stroke:none;fill-rule:nonzero;fill:#fa6700;fill-opacity:1;" d="M 340.144531 104.152344 C 340.144531 104.152344 333.628906 88.933594 349.839844 81.417969 C 353.308594 79.8125 358.105469 83.476562 353.394531 91.953125 C 348.683594 100.425781 349.320312 101.933594 349.320312 101.933594 C 349.320312 101.933594 348.308594 97.457031 350.316406 93.34375 C 352.535156 88.800781 351.226562 86.25 349.5625 86.441406 C 339.726562 87.554688 340.144531 104.152344 340.144531 104.152344 "/><path style=" stroke:none;fill-rule:nonzero;fill:#fa6700;fill-opacity:1;" d="M 549.722656 160.261719 C 549.722656 160.261719 545.566406 152.355469 549.027344 143.773438 C 552.492188 135.191406 566.625 137.644531 569.8125 124.097656 C 569.8125 124.097656 571.621094 133.574219 564.222656 138.824219 C 556.824219 144.078125 551.523438 148.765625 549.722656 160.261719 "/><path style=" stroke:none;fill-rule:nonzero;fill:#fa6700;fill-opacity:1;" d="M 235.492188 110.507812 C 235.492188 110.507812 240.265625 105.238281 239.40625 98.125 C 238.839844 93.476562 240 88.535156 248.007812 87.929688 C 256.011719 87.324219 261.605469 86.714844 264.933594 83.4375 C 264.933594 83.4375 264.648438 93.722656 254.890625 95.515625 C 240.546875 98.15625 246.546875 110.097656 235.492188 110.507812 "/><path style=" stroke:none;fill-rule:nonzero;fill:#fa6700;fill-opacity:1;" d="M 5.371094 28.632812 C 11.03125 1.828125 36.21875 7.097656 33.359375 40.957031 C 32.953125 45.816406 36.960938 56.636719 41.648438 59.96875 C 33.359375 40.957031 46.582031 28.511719 55.28125 26.640625 C 58.753906 25.894531 69.832031 27.402344 72.863281 42.203125 C 72.835938 37.214844 77.054688 30.933594 80.824219 26.640625 C 84.265625 22.710938 88.769531 21.234375 92.914062 21.597656 C 108.242188 23.710938 109.238281 48.628906 103.027344 57.015625 C 92.945312 70.636719 103.058594 78.804688 103.058594 78.804688 C 102.316406 70.980469 103.300781 65.597656 113.917969 54.300781 C 122.0625 45.636719 101.523438 18.089844 127.609375 18.277344 C 133.605469 18.320312 134.714844 24.488281 134.148438 33.578125 C 133.832031 38.761719 128.601562 47.394531 128.601562 47.394531 C 141.316406 37.636719 138.964844 24.90625 147.109375 18.277344 C 155.253906 11.648438 176.316406 5.671875 185.582031 8.351562 C 199.15625 12.273438 194.347656 21.140625 194.066406 21.632812 C 192.441406 24.136719 189.832031 26.4375 185.582031 28.371094 C 195.878906 28.652344 202.675781 21.992188 204.914062 16.386719 C 210.882812 1.457031 235.492188 7.140625 238.746094 9.402344 C 254.464844 20.449219 255.09375 43.269531 240.085938 49.367188 C 232.042969 52.636719 213.207031 52.640625 207.796875 67.136719 C 221.566406 58.101562 241.597656 58.429688 259.023438 58.3125 C 268.742188 58.246094 271.984375 51.679688 274.304688 40.359375 C 276.078125 31.679688 280.421875 24.386719 292.398438 31.140625 C 306.894531 40.160156 311.855469 54.179688 300.035156 70.636719 C 315.929688 64.335938 318.269531 46.511719 306.75 32.09375 C 299.898438 23.523438 295.515625 20.445312 298.871094 14.304688 C 302.59375 7.488281 314.820312 4.183594 325.605469 13.59375 C 336.25 22.722656 332.550781 34.8125 332.550781 34.8125 C 332.550781 34.8125 336.746094 29.878906 342.175781 15.074219 C 347.605469 0.269531 389.804688 7.425781 377.558594 18.527344 C 365.304688 29.628906 371.738281 45.964844 371.738281 45.964844 C 372.386719 49.484375 373.636719 53.214844 374.800781 56.660156 C 376.578125 61.949219 378.027344 69.996094 377.457031 75.140625 C 376.484375 83.929688 368.117188 94.667969 368.117188 94.667969 C 368.117188 94.667969 390.710938 84.765625 389.550781 61.703125 C 388.804688 46.855469 385.4375 31.742188 394.53125 21.316406 C 400.152344 14.871094 408.683594 11.738281 420.609375 11.738281 C 421.636719 11.738281 422.691406 11.761719 423.789062 11.808594 C 428.46875 12.007812 440.898438 12.542969 444.496094 22.441406 C 447.046875 29.449219 444.632812 39.367188 432.5625 49.339844 C 438.375 47.957031 444.078125 45.441406 449.085938 42.28125 C 449.082031 42.296875 468.03125 33.082031 475.433594 18.527344 C 482.441406 4.746094 502.335938 12.273438 498.328125 27.734375 C 498.035156 28.53125 497.773438 29.328125 497.539062 30.128906 C 497.503906 30.222656 497.476562 30.316406 497.4375 30.410156 C 496.445312 34.042969 496 37.714844 496.074219 41.21875 C 502.554688 28.464844 522.4375 14.722656 532.703125 18.714844 C 550.40625 25.597656 538.863281 67.847656 514.75 77.21875 C 474.816406 92.746094 492.359375 135.523438 492.359375 135.523438 C 494.371094 122.523438 488.300781 96.175781 528.246094 85.714844 C 535.570312 83.796875 540.863281 82.410156 547.238281 73.664062 C 561.394531 54.242188 568.824219 57.132812 571.269531 58.082031 C 582.941406 62.621094 573.820312 86.15625 573.820312 86.15625 C 573.820312 86.15625 581.144531 76.347656 584.226562 62.621094 C 584.230469 62.628906 591.660156 36.292969 581.050781 20.253906 C 570.800781 4.761719 601.351562 6.578125 611.804688 37.222656 C 613.683594 42.675781 616.457031 48.296875 619.398438 53.015625 C 643.898438 92.296875 596.1875 83.445312 620.394531 127.71875 C 622.535156 131.628906 624.027344 135.554688 624.867188 139.445312 C 625.203125 138.699219 625.453125 137.949219 625.59375 137.203125 C 628.496094 122.160156 616.75 120.847656 630.25 98.054688 C 634.148438 91.46875 640.183594 85.15625 644.761719 80.292969 C 653.160156 71.363281 669.167969 64.960938 679.105469 76.222656 C 686.507812 84.609375 684.074219 92.535156 681.945312 101.632812 C 683.734375 100.1875 686.800781 95.773438 688.402344 93.984375 C 695.289062 86.289062 694.035156 82.820312 692.164062 73.445312 C 688.308594 54.148438 727.597656 21.078125 735.371094 36.253906 C 738.136719 41.652344 734.945312 48.304688 732.285156 53.523438 C 758.972656 50.601562 763.414062 9.644531 773.179688 19.421875 C 774.769531 21.015625 776.949219 29.667969 780.933594 35.550781 C 784.257812 40.464844 790.308594 41.472656 790.308594 41.472656 C 787.59375 39.273438 787.453125 34.511719 788.089844 32.097656 C 790.730469 22.105469 802.515625 17.914062 807.132812 28.519531 C 810.667969 36.640625 810.039062 45.292969 807.449219 54.582031 C 807.234375 55.351562 799.179688 74.566406 819.167969 92.117188 C 809.914062 65.3125 817.421875 68.726562 819.296875 52.140625 C 819.863281 47.121094 825.832031 33.636719 836.933594 43.109375 C 845.386719 50.320312 843.621094 65.3125 843.621094 65.3125 C 853.246094 57.417969 854.925781 44.328125 852.851562 37.910156 C 848.972656 25.886719 867.535156 23.386719 868.523438 47.730469 C 868.980469 58.941406 869.140625 66.917969 869.140625 66.917969 C 869.140625 66.917969 877.097656 51.992188 876.355469 34.96875 C 875.824219 22.6875 873.582031 10.253906 886.90625 6.554688 C 900.113281 2.886719 904.804688 13.546875 905.589844 16.65625 C 911.96875 2.492188 925.183594 12.011719 927.007812 20.519531 C 931.078125 39.519531 937 45.035156 937 45.035156 C 937 45.035156 933.121094 34.996094 935.148438 26.023438 C 939.859375 5.210938 959.65625 0.285156 969.03125 27.226562 C 967.121094 17 974.53125 11.820312 979.582031 9.398438 C 992.589844 3.160156 1000 8.257812 1004.257812 16.308594 C 1007.878906 23.15625 1009.941406 32.277344 1007.34375 38.605469 C 1017.820312 23.792969 1013.855469 14.386719 1008.636719 3.246094 L 3.15625 3.21875 C 1.992188 9.796875 2.15625 18.328125 5.371094 28.632812 "/><path style=" stroke:none;fill-rule:nonzero;fill:#ffc234;fill-opacity:1;" d="M 379.203125 80.109375 C 379.203125 80.109375 383.53125 69.621094 378.96875 59.320312 C 374.40625 49.019531 382.339844 40.855469 382.339844 40.855469 C 382.339844 40.855469 378.234375 50.457031 385.292969 59.183594 C 391.148438 66.414062 379.203125 80.109375 379.203125 80.109375 "/><g clip-rule="nonzero" clip-path="url(#cbe7c2f92c)"><path style=" stroke:none;fill-rule:nonzero;fill:#ffc234;fill-opacity:1;" d="M -0.0078125 3.246094 L -0.0078125 19.554688 C -0.0078125 19.554688 2.191406 29.199219 1.453125 34.875 C 1.453125 34.875 4.335938 32.378906 5.371094 28.632812 C 6.648438 24.042969 4.359375 20.917969 7.558594 16.121094 C 13.480469 7.242188 25.796875 6.027344 31.246094 6.777344 C 42.074219 8.269531 43.46875 23.152344 28.84375 27.226562 C 28.84375 27.226562 32.542969 33.246094 50.308594 21.671875 C 58.839844 16.121094 84.039062 16.945312 71.78125 34.070312 C 71.78125 34.070312 85.59375 35.546875 83.992188 18.34375 C 82.769531 5.082031 121.421875 10.25 111.699219 21.980469 C 99.882812 36.238281 116.863281 38.34375 99.417969 52.050781 C 99.417969 52.050781 107.847656 52.019531 114.269531 45 C 114.261719 45.035156 114.394531 44.867188 114.585938 44.628906 C 115.070312 44.078125 115.535156 43.488281 115.988281 42.847656 C 119.941406 37.785156 129.609375 24.972656 132.917969 16.800781 C 137.109375 6.4375 150 8.035156 151.917969 11.125 C 153.839844 14.21875 134 24.925781 136.542969 38.257812 C 136.542969 38.257812 146.917969 22.90625 154.925781 27.074219 C 162.9375 31.242188 157.59375 41.351562 154.140625 43.386719 C 154.140625 43.386719 166.234375 42.460938 167.960938 30.371094 C 169.683594 18.28125 175.4375 11.402344 183.015625 11.125 C 193.378906 10.75 192.636719 29.628906 188.9375 35.058594 C 188.9375 35.058594 194.609375 35.796875 196.339844 23.957031 C 198.066406 12.113281 223.972656 6.191406 218.09375 21.847656 C 218.09375 21.847656 220.925781 24.339844 230.15625 12.714844 C 233.273438 11.277344 236.695312 10.257812 240.105469 10.078125 C 247.066406 12.132812 255.097656 19.003906 258.414062 23.824219 C 258.960938 25.21875 259.46875 26.707031 259.90625 28.359375 C 261.402344 33.925781 253.46875 39.816406 253.46875 39.816406 C 253.46875 39.816406 262.261719 38.828125 268.386719 32.425781 C 277.949219 22.421875 267.792969 25.890625 266.535156 14.132812 C 265.277344 2.375 287.535156 7.613281 281.847656 13.085938 C 272.300781 22.253906 281.910156 33.046875 288.46875 39.824219 C 294.660156 46.230469 292.292969 55.675781 292.292969 55.675781 C 292.292969 55.675781 301.1875 47.890625 298.871094 40.53125 C 296.558594 33.175781 288.152344 23.242188 296.289062 14.050781 C 304.417969 4.859375 322.957031 14.828125 322.957031 14.828125 C 322.59375 13.789062 322.050781 12.6875 321.390625 11.554688 C 321.390625 11.554688 320.214844 0.519531 329.839844 7.671875 C 339.464844 14.828125 329.839844 27.902344 329.839844 27.902344 C 329.839844 27.902344 340.699219 20.5 340.453125 13.101562 C 340.207031 5.699219 364.136719 3.503906 368.582031 13.839844 C 373.03125 24.175781 368.582031 35.339844 364.140625 40.855469 C 364.140625 40.855469 375.394531 35.902344 377.554688 25.4375 C 379.714844 14.972656 386.578125 18.714844 383.878906 33.578125 C 383.878906 33.578125 394.617188 13.84375 404.871094 15.308594 C 415.128906 16.773438 415.128906 25.558594 415.128906 25.558594 C 415.128906 25.558594 417.429688 9.238281 432.078125 10.914062 C 446.722656 12.585938 450.074219 24.511719 448.398438 30.789062 C 448.398438 30.789062 455.933594 27.648438 453.839844 19.492188 C 453.679688 18.863281 453.414062 18.25 453.085938 17.648438 C 451.554688 13.421875 449.316406 3.527344 463.402344 6.316406 C 481.171875 9.832031 466.921875 34.625 461.367188 39.066406 C 461.367188 39.066406 477.839844 29.882812 480.0625 22.449219 C 482.28125 15.011719 498.722656 20.75 494.851562 30.371094 C 490.980469 39.992188 498.75 46.46875 498.75 46.46875 C 498.75 46.46875 496.347656 33.699219 500.972656 30 C 505.601562 26.300781 512.910156 2.519531 520.035156 31.296875 C 520.035156 31.296875 554.738281 13.632812 533.078125 53.113281 C 530.320312 55.28125 523.695312 62.300781 522.277344 74.582031 C 520.859375 86.867188 502.113281 84.769531 497.65625 94.648438 C 493.199219 104.527344 495.382812 108.472656 495.382812 108.472656 C 495.382812 108.472656 497.585938 98.59375 508.71875 95.589844 C 519.855469 92.585938 533.617188 87.855469 535.949219 77.152344 C 538.28125 66.445312 558.9375 69.226562 561.804688 53.226562 C 564.667969 37.226562 576.15625 18.078125 583.421875 30.683594 C 590.6875 43.289062 587.589844 62.253906 587.589844 62.253906 C 587.589844 62.253906 595.820312 49.6875 598.757812 35.003906 C 604.117188 5.175781 619.253906 8.164062 632.007812 28.890625 C 644.761719 49.613281 629.386719 79.71875 629.136719 82.140625 C 629.136719 82.140625 633.933594 78.617188 638.265625 72.859375 C 662.351562 40.863281 653.003906 17.910156 671.46875 14.078125 C 689.371094 10.378906 661.992188 31 672.769531 60.144531 C 676.796875 71.035156 680.957031 71.410156 680.957031 71.410156 C 680.957031 71.410156 675.40625 60.308594 683.917969 48.835938 C 702.261719 24.121094 725.375 18.488281 739.8125 17.007812 C 758.511719 15.089844 748.878906 36.4375 748.878906 36.4375 C 748.878906 36.4375 749.941406 35.503906 751.457031 33.90625 C 756.890625 28.730469 769.402344 17.859375 772.851562 23.894531 C 777.292969 31.664062 769.335938 42.398438 762.671875 43.695312 C 762.671875 43.695312 781.351562 41.355469 791.53125 20.0625 C 794.703125 16.148438 799.3125 11.917969 805.363281 10.140625 C 812.269531 8.109375 828.128906 12.664062 818.25 37.9375 C 813.609375 49.796875 824.382812 58.507812 824.382812 58.507812 C 824.382812 58.507812 821.917969 45.835938 827.789062 39.640625 C 838.355469 28.492188 837.605469 14.496094 844.175781 14.242188 C 852.082031 13.9375 854.714844 33.394531 847.441406 46.339844 C 847.441406 46.339844 860.621094 41.34375 862.210938 26.828125 C 863.039062 19.261719 856.558594 9.425781 866.980469 5.90625 C 877.402344 2.390625 877.210938 22.480469 891.980469 16.800781 C 891.980469 16.800781 887.9375 15.132812 885.21875 11.804688 C 882.851562 6.4375 892.046875 3.265625 899.257812 9.089844 C 906.472656 14.917969 894.445312 26.113281 894.445312 26.113281 C 894.445312 26.113281 904.070312 25.191406 910.734375 12.050781 C 912.214844 8.535156 922.257812 6.40625 925.394531 16.585938 C 928.535156 26.761719 945.898438 38.328125 939.234375 49.984375 C 939.234375 49.984375 949.789062 42.914062 944.972656 28.519531 C 940.15625 14.128906 955.210938 2.910156 963.296875 7.917969 C 969.464844 11.742188 965.574219 17.035156 965.574219 17.035156 C 965.574219 17.035156 969.144531 16.230469 972.78125 9.882812 C 974.320312 7.199219 984.371094 2.355469 987.972656 7.796875 C 991.878906 13.695312 999.199219 15.074219 999.199219 15.074219 C 992.535156 6.5625 999.714844 6.019531 1002.039062 7.425781 C 1008.609375 11.402344 1009.839844 25.90625 1005.953125 31.757812 C 1005.953125 31.757812 1013.726562 26.945312 1014.375 18.15625 C 1014.921875 10.773438 1022.703125 12.15625 1024 19.554688 L 1024 3.246094 L -0.0078125 3.246094 "/></g></g></svg>